<mxfile host="app.diagrams.net" modified="2023-06-11T22:16:12.190Z" agent="Mozilla/5.0 (Macintosh; Intel Mac OS X 10_15_7) AppleWebKit/537.36 (KHTML, like Gecko) Chrome/113.0.0.0 Safari/537.36" etag="okTSxgX95KWSskdc92uP" version="21.3.8" type="github">
  <diagram name="Seite-1" id="YQbuYoZeQX_VQ0huNb_y">
    <mxGraphModel dx="984" dy="668" grid="1" gridSize="10" guides="1" tooltips="1" connect="1" arrows="1" fold="1" page="1" pageScale="1" pageWidth="3300" pageHeight="4681" math="0" shadow="0">
      <root>
        <mxCell id="0" />
        <mxCell id="1" parent="0" />
        <mxCell id="Ja-BKbR7OlF34bsHl7U3-11" style="edgeStyle=orthogonalEdgeStyle;rounded=0;orthogonalLoop=1;jettySize=auto;html=1;entryX=0;entryY=0.5;entryDx=0;entryDy=0;" edge="1" parent="1" source="Ja-BKbR7OlF34bsHl7U3-1" target="Ja-BKbR7OlF34bsHl7U3-2">
          <mxGeometry relative="1" as="geometry" />
        </mxCell>
        <mxCell id="Ja-BKbR7OlF34bsHl7U3-15" value="" style="edgeStyle=orthogonalEdgeStyle;rounded=0;orthogonalLoop=1;jettySize=auto;html=1;" edge="1" parent="1" source="Ja-BKbR7OlF34bsHl7U3-1" target="Ja-BKbR7OlF34bsHl7U3-2">
          <mxGeometry relative="1" as="geometry" />
        </mxCell>
        <mxCell id="Ja-BKbR7OlF34bsHl7U3-1" value="Home" style="rounded=0;whiteSpace=wrap;html=1;" vertex="1" parent="1">
          <mxGeometry x="160" y="170" width="120" height="60" as="geometry" />
        </mxCell>
        <mxCell id="Ja-BKbR7OlF34bsHl7U3-7" style="edgeStyle=orthogonalEdgeStyle;rounded=0;orthogonalLoop=1;jettySize=auto;html=1;" edge="1" parent="1" source="Ja-BKbR7OlF34bsHl7U3-2">
          <mxGeometry relative="1" as="geometry">
            <mxPoint x="550" y="200" as="targetPoint" />
          </mxGeometry>
        </mxCell>
        <mxCell id="Ja-BKbR7OlF34bsHl7U3-9" style="edgeStyle=orthogonalEdgeStyle;rounded=0;orthogonalLoop=1;jettySize=auto;html=1;" edge="1" parent="1" source="Ja-BKbR7OlF34bsHl7U3-2" target="Ja-BKbR7OlF34bsHl7U3-3">
          <mxGeometry relative="1" as="geometry">
            <Array as="points">
              <mxPoint x="410" y="270" />
              <mxPoint x="240" y="270" />
            </Array>
          </mxGeometry>
        </mxCell>
        <mxCell id="Ja-BKbR7OlF34bsHl7U3-10" style="edgeStyle=orthogonalEdgeStyle;rounded=0;orthogonalLoop=1;jettySize=auto;html=1;entryX=0.617;entryY=-0.017;entryDx=0;entryDy=0;entryPerimeter=0;" edge="1" parent="1" source="Ja-BKbR7OlF34bsHl7U3-2" target="Ja-BKbR7OlF34bsHl7U3-4">
          <mxGeometry relative="1" as="geometry">
            <mxPoint x="500" y="460" as="targetPoint" />
            <Array as="points">
              <mxPoint x="410" y="270" />
              <mxPoint x="511" y="270" />
              <mxPoint x="511" y="460" />
              <mxPoint x="504" y="460" />
            </Array>
          </mxGeometry>
        </mxCell>
        <mxCell id="Ja-BKbR7OlF34bsHl7U3-2" value="weathershow" style="whiteSpace=wrap;html=1;" vertex="1" parent="1">
          <mxGeometry x="350" y="170" width="120" height="60" as="geometry" />
        </mxCell>
        <mxCell id="Ja-BKbR7OlF34bsHl7U3-17" value="" style="edgeStyle=orthogonalEdgeStyle;rounded=0;orthogonalLoop=1;jettySize=auto;html=1;" edge="1" parent="1" source="Ja-BKbR7OlF34bsHl7U3-3" target="Ja-BKbR7OlF34bsHl7U3-16">
          <mxGeometry relative="1" as="geometry" />
        </mxCell>
        <mxCell id="Ja-BKbR7OlF34bsHl7U3-3" value="geo Stadt" style="rounded=0;whiteSpace=wrap;html=1;" vertex="1" parent="1">
          <mxGeometry x="180" y="360" width="120" height="60" as="geometry" />
        </mxCell>
        <mxCell id="Ja-BKbR7OlF34bsHl7U3-4" value="API Stadt" style="rounded=0;whiteSpace=wrap;html=1;" vertex="1" parent="1">
          <mxGeometry x="430" y="470" width="120" height="60" as="geometry" />
        </mxCell>
        <mxCell id="Ja-BKbR7OlF34bsHl7U3-5" value="Koordinaten fetch" style="text;html=1;strokeColor=none;fillColor=none;align=center;verticalAlign=middle;whiteSpace=wrap;rounded=0;" vertex="1" parent="1">
          <mxGeometry x="90" y="380" width="60" height="30" as="geometry" />
        </mxCell>
        <mxCell id="Ja-BKbR7OlF34bsHl7U3-6" value="Wetterdaten&amp;nbsp;&lt;br&gt;fech" style="text;html=1;strokeColor=none;fillColor=none;align=center;verticalAlign=middle;whiteSpace=wrap;rounded=0;" vertex="1" parent="1">
          <mxGeometry x="430" y="440" width="60" height="30" as="geometry" />
        </mxCell>
        <mxCell id="Ja-BKbR7OlF34bsHl7U3-13" style="edgeStyle=orthogonalEdgeStyle;rounded=0;orthogonalLoop=1;jettySize=auto;html=1;" edge="1" parent="1" source="Ja-BKbR7OlF34bsHl7U3-12" target="Ja-BKbR7OlF34bsHl7U3-14">
          <mxGeometry relative="1" as="geometry">
            <mxPoint x="610" y="330" as="targetPoint" />
          </mxGeometry>
        </mxCell>
        <mxCell id="Ja-BKbR7OlF34bsHl7U3-12" value="weathermod" style="rounded=0;whiteSpace=wrap;html=1;" vertex="1" parent="1">
          <mxGeometry x="550" y="170" width="120" height="60" as="geometry" />
        </mxCell>
        <mxCell id="Ja-BKbR7OlF34bsHl7U3-14" value="end" style="rounded=0;whiteSpace=wrap;html=1;" vertex="1" parent="1">
          <mxGeometry x="550" y="300" width="120" height="60" as="geometry" />
        </mxCell>
        <mxCell id="Ja-BKbR7OlF34bsHl7U3-19" value="" style="edgeStyle=orthogonalEdgeStyle;rounded=0;orthogonalLoop=1;jettySize=auto;html=1;" edge="1" parent="1" source="Ja-BKbR7OlF34bsHl7U3-16" target="Ja-BKbR7OlF34bsHl7U3-18">
          <mxGeometry relative="1" as="geometry" />
        </mxCell>
        <mxCell id="Ja-BKbR7OlF34bsHl7U3-24" value="" style="edgeStyle=orthogonalEdgeStyle;rounded=0;orthogonalLoop=1;jettySize=auto;html=1;" edge="1" parent="1" source="Ja-BKbR7OlF34bsHl7U3-16" target="Ja-BKbR7OlF34bsHl7U3-23">
          <mxGeometry relative="1" as="geometry" />
        </mxCell>
        <mxCell id="Ja-BKbR7OlF34bsHl7U3-16" value="City existiert" style="rhombus;whiteSpace=wrap;html=1;rounded=0;" vertex="1" parent="1">
          <mxGeometry x="200" y="490" width="80" height="80" as="geometry" />
        </mxCell>
        <mxCell id="Ja-BKbR7OlF34bsHl7U3-18" value="fetch Koodrinaten" style="whiteSpace=wrap;html=1;rounded=0;" vertex="1" parent="1">
          <mxGeometry x="180" y="630" width="120" height="60" as="geometry" />
        </mxCell>
        <mxCell id="Ja-BKbR7OlF34bsHl7U3-23" value="error" style="whiteSpace=wrap;html=1;rounded=0;" vertex="1" parent="1">
          <mxGeometry x="330" y="630" width="120" height="60" as="geometry" />
        </mxCell>
      </root>
    </mxGraphModel>
  </diagram>
</mxfile>
